#ifdef PIXEL_DOUBLING
#define cursorm_width 20
#define cursorm_height 32
static char cursorm_bits[] = {
 0x0c,0x00,0x00,0x0c,0x00,0x00,0x3f,0x00,0x00,0x3f,0x00,0x00,0xff,0x00,0x00,
 0xff,0x00,0x00,0xff,0x03,0x00,0xff,0x03,0x00,0xff,0x0f,0x00,0xff,0x0f,0x00,
 0xff,0x3f,0x00,0xff,0x3f,0x00,0xff,0xff,0x00,0xff,0xff,0x00,0xff,0xff,0x03,
 0xff,0xff,0x03,0xff,0xff,0x0f,0xff,0xff,0x0f,0xff,0xff,0x03,0xff,0xff,0x03,
 0xff,0x3f,0x00,0xff,0x3f,0x00,0x3f,0xff,0x00,0x3f,0xff,0x00,0x0c,0xff,0x00,
 0x0c,0xff,0x00,0x00,0xfc,0x03,0x00,0xfc,0x03,0x00,0xfc,0x03,0x00,0xfc,0x03,
 0x00,0xf0,0x00,0x00,0xf0,0x00};
#else
#define cursorm_width 10
#define cursorm_height 16
static char cursorm_bits[] = {
 0x02,0x00,0x07,0x00,0x0f,0x00,0x1f,0x00,0x3f,0x00,0x7f,0x00,0xff,0x00,0xff,
 0x01,0xff,0x03,0xff,0x01,0x7f,0x00,0xf7,0x00,0xf2,0x00,0xe0,0x01,0xe0,0x01,
 0xc0,0x00};
#endif /* PIXEL_DOUBLING */
