#ifdef PIXEL_DOUBLING
#define cursor_width 20
#define cursor_height 32
static char cursor_bits[] = {
 0x00,0x00,0xf0,0x00,0x00,0xf0,0x0c,0x49,0xf2,0x4c,0x00,0xf0,0x3c,0x11,0xf1,
 0x3c,0x00,0xf0,0xfc,0x44,0xf4,0xfc,0x00,0xf0,0xfc,0x13,0xf1,0xfc,0x03,0xf0,
 0xfc,0x4f,0xf2,0xfc,0x0f,0xf0,0xfc,0x3f,0xf0,0xfc,0x3f,0xf4,0xfc,0xff,0xf0,
 0xfc,0xff,0xf0,0xfc,0xff,0xf3,0xfc,0xff,0xf3,0xfc,0x0f,0xf0,0xfc,0x0f,0xf0,
 0x3c,0x0f,0xf0,0x3c,0x8f,0xf4,0x0c,0x3c,0xf0,0x0c,0x3c,0xf0,0x00,0x3c,0xf2,
 0x40,0x3c,0xf0,0x00,0xf0,0xf0,0x24,0xf0,0xf0,0x00,0xf1,0xf0,0x08,0xf0,0xf4,
 0x80,0x00,0xf0,0x12,0x04,0xf0};
#else
#define cursor_width 10
#define cursor_height 16
static char cursor_bits[] = {
 0x00,0x00,0x02,0x00,0x06,0x00,0x0e,0x00,0x1e,0x00,0x3e,0x00,0x7e,0x00,0xfe,
 0x00,0xfe,0x01,0x3e,0x00,0x36,0x00,0x62,0x00,0x60,0x00,0xc0,0x00,0xc0,0x00,
 0x00,0x00};
#endif /* PIXEL_DOUBLING */
