/* XPM */
static char *Maelstrom_icon[] = {
/* width height num_colors chars_per_pixel */
"    96    72       40            1",
/* colors */
". c #000000",
"# c #aa9200",
"a c #aa0000",
"b c #aa4900",
"c c #554900",
"d c #550000",
"e c #ffdb00",
"f c #ff4900",
"g c #ff9200",
"h c #ff0000",
"i c #552400",
"j c #ffb600",
"k c #002400",
"l c #aa6d00",
"m c #aa2400",
"n c #ff6d00",
"o c #ffdbaa",
"p c #556d55",
"q c #ff2400",
"r c #ff9255",
"s c #ffb655",
"t c #000055",
"u c #aa6d55",
"v c #aa9255",
"w c #ff6d55",
"x c #ffffaa",
"y c #aab6aa",
"z c #552455",
"A c #ffdb55",
"B c #554955",
"C c #aa4955",
"D c #ffffff",
"E c #ffb6aa",
"F c #ff4955",
"G c #ffdbff",
"H c #ff92aa",
"I c #aa92aa",
"J c #aa6daa",
"K c #aab655",
"L c #ffff55",
/* pixels */
"ahhhhhhhaadmbfgggjjjjAAAAooosrnnrgjldaahamfsgngmdddddddmbfmfbfnjsAjgngjggjbddmb#gnmaaaaaadaaaaad",
"aaaaaaahd..ablggjgjjjAeAAALAsnrggjjmddd#mnwsgfnmddddddamqbbfnbgjjjjgnngggrfaabnjjgmhaahaahaahaaa",
"aaaaaaaad..ddfnggjjjejjAAAAAsgrjse#i...mmrjgbbmddddddadbbffnggnggjgggggnnnbbbnrsrgdaahaahaqaaaaa",
"daaaaadi..zkiinggjjjjejejAeAsjsAjeld.t.ingj#qaddddiamaqfbngsossgsjsjgngnnlffnnssrsaahaahaahahhah",
"dddaiddd.ilnudbfggrgjjjjjjjjjAejjKi....bllfmddddaimmCmlwnssAsjjsjjgsggngnnbnbfggggmmaahaaaaiadaa",
"ddadddt...i.dkdbfngggggjgjjjjjjjjbd....kdmdtdddmnnnfflnjjeAAAoAAAjjjjggsgnbnbngngrmaaazdd.....aa",
"dddddd......cd.zbgnrgggjsjjjjjjjld.....t...ddaCgnnflggAssAArsAsfAAAjjjjsgnnfnulnggmdad.......dma",
"d.ddd.id.idBi.dmblnnggrgggrgjgj#z..z.zi...dmnrgnnggsooosrrnlggjsAvgj#rg#nnlnbffgjjdzd.........td",
".dd..tbmc.Cccdmffnnnn#gggg#ggrgb.......ddamnlngrKsosnwbfCnrAsoAojsrjngnnnnfbfbflwbd............d",
"...z.d..t...zdmbbnbnnnngggggngb......ddibfnngjsAsggnnrsArAAeAeggngnngngsrsnbfCmaadd...i...d.....",
".............dmCfnflnnrnngnbgC.....ddamqbnlgsAAsgsAoAAAAsrgrgnnbnlbfblgnrbfCbqmadd.ib.C...t.....",
"...........ddamfbCnfnnnn#nbml.....dmmmCfnnrsssgsAsjjrsnnlfblnbbfbffbffbbbfbqmmadaddddk..........",
".........d.dddambffbnnlnfbzit...cCbbfnngsjjsAejg#fbbmmimbmmCbbbbmbiadmaamammmammaCbfggn.......d.",
".........d.ddaaaqbbnbnnnbitd...bnbffngggeAejArbmaddd.d.................dddadammbffnsognfl......t",
"..........ddtdaambflfbnndkd..clwfbnggjjKgjuladd..d.....dkd.d.ddiiz.d.....d.ambwbf#njssibi...d...",
"...........d.idamCfbflfmdd.ilfbfnrgggjs#fdd.........dkciikiibBmcaimbfwbbci...dcilnnbbid.........",
"....d...d....ddaafbfbbfdd..ilfbggjjrrrmamd.............i............klgssnCi...................d",
"............ztdaabfbffadk..lbfnnjgggbaami.......iBbbbCmci.z....d.....k.ilgsjlzkk......bk........",
"........t....ddambqbbbad...ffnnrjggmabnk...kBcmbnrs#ii...idczk.d.dd..dziktbvgnmz................",
"..............diamCmqdd..iCnfn#gnbmmbcd...ibnu#bi.kdd.ddd.dddidt...dt.d.d...kdbbz.......t......d",
"i....t.......dddaaammdt.tngbgggnmdmp.....ifzi...dddzdaammmfbfmmmaa.d.d.ddddt...bliii..t....d.did",
".........d...didaadmad..crbfnrgbdznd...dami...dd.t......dtdmmbCbbmmadid..zddd...zc.....d....tdaa",
"..........t...dddmdad..ilnbfgggmif....dd.......kiiiii..kid.kdamffbfbadddd.ddddd.............diaa",
".............dddddtdd..igbfngjbdd....Bi.z....dzfnfnCkdt......tdbbfbfbmaadadddddd...........d.daa",
".......d......ddd.kdd..bnbf#rbi.....cdii..ibClbcizk.d.didid.d.ddibbflfmfmmdaiddddddd......d.ddaa",
"......t......ddd...d...glfnnvd......il...Cgciiid..ddaddmmCfbfbikddzmfnflfmmmaaddzadd.k.d.dkddaah",
"...........d..d.kz....zAfnn#m......kb...bgiiccdt.d..kd.dddabbffbaddidlnbnbCmmmadddddddd.d.dddahh",
"..............kddb....lsmnng.....d.mi..zgi.Ck..............dambwbbmbCmbnnffqbmmaadaadd.ddzddaamh",
"..............d.dz...drgbnnu......d...bbidB............k...i..dkdmbfbmbfnnfbfbmfmmdaaddiadaaaaah",
".........d.....dd....ismbnrl.....bC..lu.d.................ik..d..tdbnbfnbnnnnfbbfbmddadzmmaamhaq",
"......dt......d..i...ksmnnnl....dnk..ndkid.................iCk.....dbnlfnbnlnnfFbfmadddmmmqmCaha",
".........dtiBz...i...isalnvi....bc..ik.dB.......d.d....t......id....innlfnnnngnbbfbmCzczmqqaqmhm",
"...........udiB...k..brinnbm....B..k...id...t.d................cz....CfnnlnnnnnfbffIpmbzmqfFqqqq",
"....k....dBBdiy......igm#rmi....c..d...i..........zki..z........d....ilnnnnnnrnnbfbrbimcmqqbqFfq",
"....ikz.d.zCddot..z..igmCgmi...dd..z...d.......tikdikzb.i...d....k...kfnnnnlnn#nnbmpF.zmimfqffff",
".....bcd.dBB..BiBczbB.lbbgbd...........i....d.iiBCpvpBkbcm.t.......t..ibngnnnnrcCcbzm.dbzmffbfff",
".d.d.ii.ddCiddiBBd.dJ.cbijg..........i.ib...kiBpuvEyyvCkzib....t....dd.znngnnnpqdmbbi..mzhmfffnf",
".ddddt...dpz.tiBB...bB.ldrsi.........zdkn..dtiBurEooEypk..u..........z.dbgu#glC..ziCd.tqzmfffffn",
"ddddaai.dduz..zBC...zp.izpuC..........l.Ckd.kBvryooooyvz..l.........iii.bBBBBbb.kzim..tmimqmFfnn",
"didammmmdauzt.iBB..diB.tczdc..........ki.dkBkCvyoDxDooIki.b.z..d....ipCcbiCimBi..tmmzt.fzmmfqfff",
"addaqffbmmui..dIB...tp.Bi..z...zkB....Bk...izpKoxGxxGovz..b.B...tkikBbmd....mBdt.dzq.t.CCmqmffnf",
"mazdmbfbfbIzt.kIBt.tdJ.pd.ibi.zBCCpJBJy.....kcvooxDxooIi..z.piBppCBCBCd..tdtmimtd.Bft.dCCmmqffnf",
"mdmiiFfnbfIc..dIB.B..v.Jt.tzriBidiaaCuIpBk..iBuyooDGyovkk.kiypCCfbdmii..td.tmBdt..catd.mummqbFfn",
"qbqmabfnnbrBd.dyB.ttdykI...ikbpdt..t.dmziCz.dBcBkCkupBizitifBdt.td.tbz.diC.diCit.tumzdkFufmqffff",
"qbfqfnfnnnvbtkiyizitdIppttzz..Id.dd.t.mztic..B#.izk.t.td.tdbB..tdtkdzdtqpCdtdudditCmtd.qybfmFbnf",
"fqqmfffnnnIbtziIBtid.vpC.idzB.I.tiBmzaimtaz..Blz.ktdtd.t.izmzddbCbmtuddCuuatmIztqtCmtmtqvffffffn",
"fbqqfmffngvbzdiuzdbdiIIB.bitJ.vkdBpBzBBB.zzk.pltikdBiBC.tmiBitdBkBz.Fz.Fvwitavddq.udtatfynbfbfff",
"nfmfaqFfnnvbtkzuidbtipIidCmiI.IzzbuIyoyBziz..BbtBkk.Bk.tzmkpa.dIBId.uddFrvataImdhtmdza.qvnfnfffn",
"nbfmqqqbnnvftdduzzbdiJvidCbtI.vt.iiizdBptzB..pa.lkzlCpdt.FzJmtmuwCmtuzduvrd.ayzdazCd.mtqInfnFfnf",
"nnfFqmfqqnultiiCiifpipuizubiukIi.tt.tdlCtiB..IidtdttmCBt.mzImddmdzt.wddFvuataIddhdmtda.qInffffnf",
"sunCfmqbfbuftzifizfziJudzulzukIz..ttdzCbtCc..pCz.tdtdmutdmcpqtatz.tmCzdCrva.auzdhaatdazmInnffffn",
"ssEuFFqqqfubtitfzmfzmpFtiufdFpud.mmmmmCCtmB..kybcbbdtdzdtazBm.ddtdaqpddmundzauadhmmtdatqvgnnfnfn",
"oEsEwbFfqquftmtfdmF.zIftdzitfIpzdCuIIuyutzB...tBtcJizikttkkBztadtdmBizdmvudtaBztmadddm.hpnnfnfnf",
"oxoorrCfbmuFtmtfzmFddIm.t.z.mIvddFpk...CtmppIppzkppztmBtdkzB.ztzttzkzdzmubataBadqaataataInnnbfnf",
"oGxoorEwFfJbdizazauzdImtttitauIzdCCCuCvCtzdzizddzdCitbC.tdkBktiz.tkBbtdzpbitdBztmhatmataugnfffff",
"AooxooEsvwvCtzta.FftmIatd..ddCudtdzdttmBt.tttzt.dtdtmCzttmzBdttBkz.Bp.tiBp.ttBd.zzt.dzzapnlnFfnf",
"AAoAoooosrIFdmdttCFddvdz.dadzhIdztztztiC.tdz..tt.tt.Fuc..qkpdzipz.zzBttkiztdtBttizztzdtmpgnffffn",
"jAAAAoAoEoImtmtzdCFdiJz.CCwBtaIdz.tdtizuB.BdddkiibBmBzkcziiuzdzuBdi.p.tz.ttt.B..Bkti.ztdpnnfffff",
"jrKjsAAAAAyqtaztduCdzvtdwbnCtdCIiBBIpBlblnvnnuii.k.ii.dcC...iCpu#umdCzttd.tdiBt.iBdtz.z.vlnfffnf",
"###jKrAEooyqtCdtduCtdItdCffbddpuIvuCiid.ii.dt...iCbkiCi...ifnjgjjvppBcdtttzt.BtdtptdtztipFffffnf",
"lll#gKsAAoyqtCdzzICdzutzlmmppIIfbffbbfbmmad....cci.td....mnggjjejjjlCBmddt..ipztcBttczdtplffffff",
"ibiClujKsLymzBmtdICddptduflFlmmmbmmmfCbmqiad.i.d.....kinnjgesjjsj#glciBBBizipp.zzpdtB.tipbffffff",
"ddiiil#vsAymdudtmIC.tImCrggnnnfbbfbffbfbbmbbCmiktiikCngjjjjjejjj#gbBikiclvvIsJd.zBz.BztiBbfqfffn",
"d.ddiCb#gsKmtCatzIcdmIIvKsjjg#gnnunlbflfnfcii.Bbcibwgjjjejeesej#jlBikdccvgAoApBdBptdBitzBmffqfnb",
".dd.diblvsymtpddzIBCIyoAAsejjgr#gnnnnnbbbd.idibbngjjjjesAAAjejK#lpiidkcu#AoAoApcCpzdptdtBifqfffn",
"d.d.diiblrvmtJidzoyooooAoAAAjAjggjggnunnnlulggejjAjAAjAeAAjjjglbliikzcvvKAooxooEyyiipztzBmqfFfff",
"...didizcuvmtuBiJxDxDoxxoooAAAAAejejjjjjejejAAAAAAAAAAAAejj#r#CcizkkivKsooxxxoxxDxBBJidzBiqffffn",
".dkd.ddimbIitpEyyoxxoDxoxxAoAoAAAAsAAAAAAAAAAoAAoAAAAAAsejjglliiikiBcvKoLoDoDxDoDxIIvzdiBmqfqbfn",
".d.dd.ddiiuiduosoxooDGxDoxoxoLAAAoLooAoAAooooAxoAAoAoAejej#llCii.iicvsooxxoDxDoxoxosHBmdBiCqffff",
".d..dd.ddzuuIu#ssyoooxoDxxooxoxxoxooxoxxooxooxAxooAAAAjjgglCidi.iccvvooxoDoooooLoorrwfBBzmmfffff",
"..d...dd.dpzibCuvvKEooooooxxoxoGxoxoxGxxGxxxxxoooxAoejAgnlm..dkiiBvgAADxoxoLAoAoKEvwfqmd.dCfqffn",
"..t.d.kdiddddicbburvryoyoyooGooooDoDxDxGxGDooDDoLoLAAegnlfiid.dzclgKoxoxxoAoAAAssrffqqmd.mmfqfff"
};
